<svg width="20" height="20" viewBox="0 0 20 20" fill="none" xmlns="http://www.w3.org/2000/svg">
<path d="M10 13.333C11.3925 13.333 12.5 12.2238 12.5 10.833C12.5 9.44217 11.3925 8.33301 10 8.33301C8.6075 8.33301 7.5 9.44217 7.5 10.833C7.5 12.2238 8.6075 13.333 10 13.333Z" fill="#00839B"/>
<path d="M17.3475 9.32199C17.152 8.36202 16.7682 7.45031 16.2183 6.63949C15.6797 5.84069 14.9921 5.15316 14.1933 4.61449C13.3815 4.06655 12.4702 3.68294 11.5108 3.48533C11.0068 3.38294 10.4935 3.33267 9.97917 3.33533V1.66699L6.66667 4.16699L9.97917 6.66699V5.00199C10.3825 5.00033 10.7858 5.03866 11.175 5.11866C11.9206 5.27231 12.6289 5.57041 13.26 5.99616C13.882 6.41545 14.4174 6.95078 14.8367 7.57283C15.4876 8.53558 15.8348 9.67148 15.8333 10.8337C15.8339 11.6136 15.6781 12.3858 15.375 13.1045C15.2285 13.451 15.0487 13.7826 14.8383 14.0945C14.6284 14.4054 14.389 14.6954 14.1233 14.9603C13.3166 15.7654 12.2926 16.3177 11.1767 16.5495C10.4007 16.7068 9.60099 16.7068 8.825 16.5495C8.07905 16.3957 7.37044 16.0973 6.73917 15.6712C6.11788 15.2522 5.58313 14.7174 5.16417 14.0962C4.51398 13.1324 4.16662 11.9963 4.16667 10.8337H2.5C2.49987 12.3286 2.94648 13.7894 3.7825 15.0287C4.32244 15.8254 5.0091 16.5121 5.80583 17.052C7.04385 17.8899 8.50509 18.3364 10 18.3337C10.5078 18.3341 11.0142 18.283 11.5117 18.1812C12.4707 17.9834 13.3817 17.5998 14.1933 17.052C14.5915 16.783 14.963 16.4763 15.3025 16.1362C15.6429 15.7964 15.9499 15.4247 16.2192 15.0262C17.0564 13.7885 17.5027 12.3279 17.5 10.8337C17.5005 10.3259 17.4494 9.81942 17.3475 9.32199Z" fill="#00839B"/>
</svg>
