<svg width="25" height="24" viewBox="0 0 25 24" fill="none" xmlns="http://www.w3.org/2000/svg">
<path fill-rule="evenodd" clip-rule="evenodd" d="M12.5 22C18.023 22 22.5 17.523 22.5 12C22.5 6.477 18.023 2 12.5 2C6.977 2 2.5 6.477 2.5 12C2.5 17.523 6.977 22 12.5 22ZM17.871 8.835C17.9178 8.78681 17.9544 8.72968 17.9786 8.66703C18.0028 8.60439 18.0142 8.5375 18.012 8.47037C18.0098 8.40324 17.9941 8.33725 17.9658 8.27632C17.9375 8.21539 17.8973 8.16078 17.8474 8.11575C17.7976 8.07072 17.7392 8.03619 17.6757 8.01423C17.6123 7.99227 17.545 7.98331 17.478 7.98791C17.411 7.99251 17.3456 8.01056 17.2857 8.04098C17.2259 8.07141 17.1727 8.11359 17.1295 8.165L11.14 14.7835L7.845 11.638C7.74912 11.5464 7.62077 11.4966 7.48819 11.4996C7.3556 11.5026 7.22963 11.5581 7.138 11.654C7.04637 11.7499 6.99657 11.8782 6.99958 12.0108C7.00258 12.1434 7.05812 12.2694 7.154 12.361L10.821 15.861L11.1925 16.216L11.537 15.835L17.871 8.835Z" fill="white"/>
</svg>
