<svg width="74" height="74" viewBox="0 0 74 74" fill="none" xmlns="http://www.w3.org/2000/svg">
<path fill-rule="evenodd" clip-rule="evenodd" d="M67.0625 37C67.0625 20.4025 53.5975 6.9375 37 6.9375C20.4025 6.9375 6.93751 20.4025 6.93751 37C6.9375 53.5975 20.4025 67.0625 37 67.0625C53.5975 67.0625 67.0625 53.5975 67.0625 37ZM37 11.5625C51.0432 11.5625 62.4375 22.9568 62.4375 37C62.4375 51.0432 51.0432 62.4375 37 62.4375C22.9568 62.4375 11.5625 51.0432 11.5625 37C11.5625 22.9568 22.9569 11.5625 37 11.5625Z" fill="#8C3191"/>
<path fill-rule="evenodd" clip-rule="evenodd" d="M44.4164 21.4898C43.5133 20.5867 42.0492 20.5867 41.1461 21.4898L27.2711 35.3648C26.368 36.2679 26.368 37.7321 27.2711 38.6352L41.1461 52.5102C42.0492 53.4133 43.5133 53.4133 44.4164 52.5102C45.3195 51.6071 45.3195 50.1429 44.4164 49.2398L32.1766 37L44.4164 24.7602C45.3195 23.8571 45.3195 22.3929 44.4164 21.4898Z" fill="#8C3191"/>
</svg>
