<svg width="74" height="74" viewBox="0 0 74 74" fill="none" xmlns="http://www.w3.org/2000/svg">
<path fill-rule="evenodd" clip-rule="evenodd" d="M6.9375 37C6.9375 20.4025 20.4025 6.9375 37 6.9375C53.5975 6.9375 67.0625 20.4025 67.0625 37C67.0625 53.5975 53.5975 67.0625 37 67.0625C20.4025 67.0625 6.9375 53.5975 6.9375 37ZM37 11.5625C22.9568 11.5625 11.5625 22.9568 11.5625 37C11.5625 51.0432 22.9568 62.4375 37 62.4375C51.0432 62.4375 62.4375 51.0432 62.4375 37C62.4375 22.9568 51.0431 11.5625 37 11.5625Z" fill="#8C3191"/>
<path fill-rule="evenodd" clip-rule="evenodd" d="M29.5836 21.4898C30.4867 20.5867 31.9508 20.5867 32.8539 21.4898L46.7289 35.3648C47.632 36.2679 47.632 37.7321 46.7289 38.6352L32.8539 52.5102C31.9508 53.4133 30.4867 53.4133 29.5836 52.5102C28.6805 51.6071 28.6805 50.1429 29.5836 49.2398L41.8234 37L29.5836 24.7602C28.6805 23.8571 28.6805 22.3929 29.5836 21.4898Z" fill="#8C3191"/>
</svg>
