<svg width="857" height="87" viewBox="0 0 857 87" fill="none" xmlns="http://www.w3.org/2000/svg">
<path d="M856.667 84C856.667 82.5272 855.473 81.3333 854 81.3333C852.527 81.3333 851.333 82.5272 851.333 84C851.333 85.4728 852.527 86.6667 854 86.6667C855.473 86.6667 856.667 85.4728 856.667 84ZM5.66663 3C5.66663 1.52724 4.47272 0.333336 2.99994 0.333336C1.52722 0.333336 0.333313 1.52724 0.333313 3C0.333313 4.47276 1.52722 5.66666 2.99994 5.66666C4.47272 5.66666 5.66663 4.47276 5.66663 3ZM854 83.5H42.9999V84.5H854V83.5ZM3.49994 44V3H2.49994V44H3.49994ZM42.9999 83.5C21.1847 83.5 3.49994 65.8152 3.49994 44H2.49994C2.49994 66.3675 20.6324 84.5 42.9999 84.5V83.5Z" fill="#6CAB36"/>
</svg>
