<svg width="691" height="87" viewBox="0 0 691 87" fill="none" xmlns="http://www.w3.org/2000/svg">
<path d="M0.333333 3C0.333333 4.47276 1.52724 5.66667 3 5.66667C4.47276 5.66667 5.66667 4.47276 5.66667 3C5.66667 1.52724 4.47276 0.333333 3 0.333333C1.52724 0.333333 0.333333 1.52724 0.333333 3ZM685.333 84C685.333 85.4728 686.527 86.6667 688 86.6667C689.473 86.6667 690.667 85.4728 690.667 84C690.667 82.5272 689.473 81.3333 688 81.3333C686.527 81.3333 685.333 82.5272 685.333 84ZM3 3.5H648V2.5H3V3.5ZM687.5 43V84H688.5V43H687.5ZM648 3.5C669.815 3.5 687.5 21.1848 687.5 43H688.5C688.5 20.6325 670.368 2.5 648 2.5V3.5Z" fill="#6CAB36"/>
</svg>
